<svg xmlns="http://www.w3.org/2000/svg" xmlns:xlink="http://www.w3.org/1999/xlink" width="500" zoomAndPan="magnify" viewBox="0 0 375 374.999991" height="500" preserveAspectRatio="xMidYMid meet" version="1.0"><defs><g/><clipPath id="8c9c8013a8"><path d="M 37.5 125 L 168.171875 125 L 168.171875 255.671875 L 37.5 255.671875 Z M 37.5 125 " clip-rule="nonzero"/></clipPath></defs><g fill="#dbdbdb" fill-opacity="1"><g transform="translate(206.787149, 173.744944)"><g><path d="M 4.410156 0 L 21.691406 0 C 35.875 0 40.105469 -12.515625 40.105469 -22.226562 C 40.105469 -34.683594 33.195312 -43.265625 21.929688 -43.265625 L 4.410156 -43.265625 Z M 10.25 -38.257812 L 21.15625 -38.257812 C 29.082031 -38.257812 34.085938 -32.777344 34.085938 -21.871094 C 34.085938 -10.964844 29.140625 -5.007812 21.574219 -5.007812 L 10.25 -5.007812 Z M 10.25 -38.257812 "/></g></g></g><g fill="#dbdbdb" fill-opacity="1"><g transform="translate(253.325744, 173.744944)"><g><path d="M 36.351562 -5.183594 L 10.25 -5.183594 L 10.25 -20.203125 L 33.910156 -20.203125 L 33.910156 -25.386719 L 10.25 -25.386719 L 10.25 -38.082031 L 35.933594 -38.082031 L 35.933594 -43.265625 L 4.410156 -43.265625 L 4.410156 0 L 36.351562 0 Z M 36.351562 -5.183594 "/></g></g></g><g fill="#dbdbdb" fill-opacity="1"><g transform="translate(296.46787, 173.744944)"><g><path d="M 4.410156 -43.265625 L 4.410156 0 L 10.25 0 L 10.25 -20.203125 L 31.40625 -20.203125 L 31.40625 -25.386719 L 10.25 -25.386719 L 10.25 -38.082031 L 34.265625 -38.082031 L 34.265625 -43.265625 Z M 4.410156 -43.265625 "/></g></g></g><g fill="#dbdbdb" fill-opacity="1"><g transform="translate(336.213532, 173.744944)"><g><path d="M 10.25 -43.265625 L 4.410156 -43.265625 L 4.410156 0 L 10.25 0 Z M 10.25 -43.265625 "/></g></g></g><g fill="#dbdbdb" fill-opacity="1"><g transform="translate(206.787149, 242.520177)"><g><path d="M 4.410156 0 L 21.691406 0 C 35.875 0 40.105469 -12.515625 40.105469 -22.226562 C 40.105469 -34.683594 33.195312 -43.265625 21.929688 -43.265625 L 4.410156 -43.265625 Z M 10.25 -38.257812 L 21.15625 -38.257812 C 29.082031 -38.257812 34.085938 -32.777344 34.085938 -21.871094 C 34.085938 -10.964844 29.140625 -5.007812 21.574219 -5.007812 L 10.25 -5.007812 Z M 10.25 -38.257812 "/></g></g></g><g fill="#dbdbdb" fill-opacity="1"><g transform="translate(253.325744, 242.520177)"><g><path d="M 28.664062 -12.632812 L 32.957031 0 L 39.332031 0 L 23.71875 -43.265625 L 17.101562 -43.265625 L 0.835938 0 L 6.851562 0 L 11.382812 -12.632812 Z M 13.171875 -17.757812 L 20.082031 -36.828125 L 20.203125 -36.828125 L 26.578125 -17.757812 Z M 13.171875 -17.757812 "/></g></g></g><g fill="#dbdbdb" fill-opacity="1"><g transform="translate(297.242504, 242.520177)"><g><path d="M 38.734375 -21.632812 C 38.734375 -11.441406 33.132812 -4.050781 23.71875 -4.050781 C 14.300781 -4.050781 8.699219 -11.5625 8.699219 -21.75 C 8.699219 -31.941406 14.300781 -39.210938 23.71875 -39.210938 C 33.132812 -39.210938 38.734375 -31.824219 38.734375 -21.632812 Z M 44.753906 -21.632812 C 44.753906 -30.988281 39.867188 -44.398438 23.71875 -44.398438 C 7.570312 -44.398438 2.683594 -30.988281 2.683594 -21.632812 C 2.683594 -12.277344 7.570312 1.132812 23.71875 1.132812 C 39.867188 1.132812 44.753906 -12.277344 44.753906 -21.632812 Z M 44.753906 -21.632812 "/></g></g></g><g clip-path="url(#8c9c8013a8)"><path fill="#dbdbdb" d="M 168.125 185.3125 C 168.128906 185.265625 168.121094 185.21875 168.105469 185.175781 C 168.101562 185.171875 168.105469 185.171875 168.101562 185.167969 L 155.082031 151.089844 C 155.078125 151.085938 155.074219 151.082031 155.074219 151.078125 C 155.050781 151.027344 155.019531 150.980469 154.976562 150.945312 L 126.335938 128.246094 C 126.292969 128.207031 126.238281 128.183594 126.179688 128.171875 C 126.171875 128.171875 126.167969 128.171875 126.164062 128.171875 L 102.789062 125.003906 C 102.742188 124.996094 102.695312 125 102.648438 125.011719 L 91.507812 128.167969 L 91.191406 128.167969 C 91.128906 128.167969 91.066406 128.1875 91.015625 128.21875 L 90.730469 128.386719 L 63.308594 136.15625 C 63.300781 136.15625 63.296875 136.164062 63.289062 136.167969 C 63.25 136.179688 63.21875 136.199219 63.1875 136.226562 C 63.175781 136.234375 63.160156 136.246094 63.152344 136.257812 C 63.144531 136.261719 63.136719 136.265625 63.132812 136.273438 L 39.117188 167.335938 C 39.109375 167.347656 39.109375 167.359375 39.101562 167.367188 C 39.09375 167.382812 39.082031 167.394531 39.078125 167.410156 C 39.074219 167.417969 39.070312 167.429688 39.070312 167.4375 C 39.0625 167.457031 39.058594 167.476562 39.054688 167.492188 C 39.054688 167.503906 39.050781 167.515625 39.046875 167.527344 L 37.535156 194.847656 C 37.535156 194.871094 37.535156 194.894531 37.539062 194.917969 L 39.753906 208.734375 C 39.757812 208.753906 39.765625 208.769531 39.769531 208.785156 C 39.773438 208.796875 39.773438 208.808594 39.777344 208.820312 C 39.78125 208.824219 39.78125 208.824219 39.785156 208.828125 C 39.785156 208.832031 39.785156 208.835938 39.789062 208.839844 L 50.96875 230.058594 C 50.988281 230.097656 51.011719 230.128906 51.042969 230.15625 L 64.15625 241.707031 C 64.179688 241.734375 64.203125 241.753906 64.226562 241.769531 L 79.390625 251.953125 C 79.433594 251.980469 79.480469 252 79.53125 252.007812 L 103.320312 255.695312 C 103.320312 255.695312 103.324219 255.695312 103.324219 255.695312 C 103.324219 255.695312 103.324219 255.695312 103.328125 255.695312 C 103.34375 255.699219 103.363281 255.699219 103.378906 255.699219 C 103.402344 255.699219 103.425781 255.695312 103.449219 255.691406 C 103.449219 255.691406 103.449219 255.691406 103.453125 255.691406 C 103.453125 255.691406 103.453125 255.691406 103.457031 255.691406 C 103.457031 255.691406 103.460938 255.691406 103.460938 255.6875 C 103.460938 255.691406 103.464844 255.6875 103.464844 255.6875 C 103.464844 255.6875 103.464844 255.6875 103.46875 255.6875 C 103.472656 255.6875 103.472656 255.6875 103.472656 255.683594 L 142.347656 244.363281 C 142.359375 244.359375 142.371094 244.347656 142.382812 244.339844 C 142.421875 244.324219 142.449219 244.300781 142.480469 244.273438 C 142.492188 244.261719 142.511719 244.257812 142.523438 244.242188 L 166.171875 213.164062 C 166.210938 213.113281 166.226562 213.058594 166.234375 213 C 166.234375 212.992188 166.242188 212.988281 166.242188 212.980469 Z M 165.578125 212.6875 L 155.347656 215.265625 L 167.304688 187.28125 Z M 124.074219 208.722656 L 86.382812 195.507812 L 114.808594 175.109375 Z M 114.808594 174.007812 L 86.464844 155.53125 L 123.320312 145.027344 Z M 114.40625 174.558594 L 85.992188 194.945312 L 85.992188 156.039062 Z M 85.308594 195.066406 L 53.066406 179.292969 L 85.308594 156.078125 Z M 92.292969 232.871094 L 61.554688 215.710938 L 85.421875 196.242188 Z M 86.097656 196.132812 L 123.867188 209.375 L 92.996094 232.917969 Z M 124.277344 209.917969 L 126.269531 238.074219 L 93.613281 233.308594 Z M 124.71875 208.488281 L 115.472656 174.933594 L 146.917969 178.066406 Z M 147.355469 178.625 L 154.328125 215.320312 L 125.160156 209.039062 Z M 154.886719 214.59375 L 147.992188 178.316406 L 167.328125 185.484375 Z M 147.402344 177 L 124.613281 145.046875 L 154.335938 151.472656 Z M 146.828125 177.371094 L 115.453125 174.246094 L 123.953125 145.296875 Z M 86.101562 154.925781 L 91.4375 129.011719 L 122.875 144.441406 Z M 85.394531 154.964844 L 61.277344 146.929688 L 90.699219 129.207031 Z M 84.910156 155.523438 L 52.960938 178.527344 L 60.710938 147.460938 Z M 52.210938 178.710938 L 39.886719 167.535156 L 59.84375 148.101562 Z M 60.160156 146.839844 L 42.628906 163.914062 L 62.605469 138.074219 Z M 51.996094 179.441406 L 40.40625 207.046875 L 39.746094 168.328125 Z M 52.3125 180.453125 L 60.476562 215.242188 L 40.546875 208.476562 Z M 52.902344 179.972656 L 85.023438 195.683594 L 61.15625 215.152344 Z M 91.875 233.421875 L 64.703125 241.050781 L 61.378906 216.394531 Z M 92.578125 233.933594 L 102.703125 254.753906 L 65.539062 241.523438 Z M 103.507812 254.839844 L 93.351562 233.957031 L 125.761719 238.6875 Z M 126.9375 237.792969 L 124.949219 209.691406 L 153.992188 215.945312 Z M 153.878906 216.917969 L 142.066406 243.609375 L 127.332031 238.355469 Z M 155.007812 216.054688 L 165.039062 213.527344 L 143.742188 241.511719 Z M 147.957031 177.574219 L 154.816406 152.316406 L 167.195312 184.707031 Z M 126.375 129.148438 L 153.398438 150.570312 L 124.207031 144.261719 Z M 102.769531 125.6875 L 121.0625 128.167969 L 94.015625 128.167969 Z M 125.726562 128.851562 L 123.550781 144.011719 L 92.660156 128.851562 Z M 61.027344 146.28125 L 63.683594 136.757812 L 88.507812 129.726562 Z M 38.21875 194.847656 L 39.207031 177.007812 L 39.664062 203.867188 Z M 51.542969 229.6875 L 42.472656 212.464844 L 62.210938 239.085938 Z M 41.015625 209.355469 L 60.636719 216.019531 L 63.898438 240.210938 Z M 66.855469 242.714844 L 99.859375 254.464844 L 79.710938 251.34375 Z M 126.695312 238.855469 L 141.144531 244.003906 L 105.167969 254.480469 Z M 126.695312 238.855469 " fill-opacity="1" fill-rule="nonzero"/></g></svg>