<svg xmlns="http://www.w3.org/2000/svg" xmlns:xlink="http://www.w3.org/1999/xlink" width="500" zoomAndPan="magnify" viewBox="0 0 375 374.999991" height="500" preserveAspectRatio="xMidYMid meet" version="1.0"><path stroke-linecap="butt" transform="matrix(1.775568, 0, 0, 1.775568, 8.16737, 9.943178)" fill="none" stroke-linejoin="miter" d="M 29.165738 83.999405 L 8.226137 83.999405 L 8.226137 16.120603 L 30.100738 16.120603 C 36.676538 16.120603 42.306338 17.473603 46.983539 20.177403 C 51.678339 22.881203 55.270939 26.762003 57.761339 31.819803 C 60.267139 36.864404 61.521139 42.901204 61.521139 49.934604 C 61.521139 56.998804 60.260539 63.081805 57.739339 68.185805 C 55.218139 73.276605 51.548539 77.186005 46.732739 79.920605 C 41.916938 82.639805 36.062738 83.999405 29.165738 83.999405 Z M 16.427738 76.708605 L 28.642138 76.708605 C 37.057138 76.708605 43.316138 74.315005 47.416939 69.532205 C 51.517739 64.747205 53.568139 58.213204 53.568139 49.934604 C 53.568139 41.717604 51.557339 35.247404 47.531339 30.521803 C 43.505338 25.783003 37.512538 23.413603 29.552938 23.413603 L 16.427738 23.413603 Z M 71.572939 83.999405 L 71.572939 16.120603 L 112.541341 16.120603 L 112.541341 23.413603 L 79.77454 23.413603 L 79.77454 46.357404 L 110.398541 46.357404 L 110.398541 53.650404 L 79.77454 53.650404 L 79.77454 76.708605 L 113.064941 76.708605 L 113.064941 83.999405 Z M 123.649141 83.999405 L 123.649141 16.120603 L 164.344742 16.120603 L 164.344742 23.413603 L 131.852941 23.413603 L 131.852941 46.357404 L 161.291142 46.357404 L 161.291142 53.650404 L 131.852941 53.650404 L 131.852941 83.999405 Z M 182.870943 16.120603 L 182.870943 83.999405 L 174.667143 83.999405 L 174.667143 16.120603 Z M 182.870943 16.120603 " stroke="#dbdbdb" stroke-width="1.399999" stroke-opacity="1" stroke-miterlimit="4"/><path stroke-linecap="butt" transform="matrix(1.775568, 0, 0, 1.775568, 8.16737, 9.943178)" fill="none" stroke-linejoin="miter" d="M 29.165738 184.000408 L 8.226137 184.000408 L 8.226137 116.121606 L 30.100738 116.121606 C 36.676538 116.121606 42.306338 117.474606 46.983539 120.178406 C 51.678339 122.882206 55.270939 126.763007 57.761339 131.820807 C 60.267139 136.863207 61.521139 142.902207 61.521139 149.935607 C 61.521139 156.999808 60.260539 163.082808 57.739339 168.186808 C 55.218139 173.275408 51.548539 177.187008 46.732739 179.921608 C 41.916938 182.640808 36.062738 184.000408 29.165738 184.000408 Z M 16.427738 176.709608 L 28.642138 176.709608 C 37.057138 176.709608 43.316138 174.316008 47.416939 169.531008 C 51.517739 164.746008 53.568139 158.214208 53.568139 149.935607 C 53.568139 141.716407 51.557339 135.246207 47.531339 130.522807 C 43.505338 125.781807 37.512538 123.412406 29.552938 123.412406 L 16.427738 123.412406 Z M 74.35154 184.000408 L 65.738539 184.000408 L 90.66674 116.121606 L 99.14334 116.121606 L 124.069341 184.000408 L 115.456341 184.000408 L 108.620941 164.768008 L 81.18694 164.768008 Z M 83.76314 157.477208 L 106.022741 157.477208 L 95.15474 126.853207 L 94.63114 126.853207 Z M 188.201543 150.072007 C 188.201543 157.226408 186.910143 163.408408 184.327343 168.620208 C 181.744543 173.829808 178.198143 177.855808 173.685943 180.696008 C 169.175943 183.520808 164.025742 184.933209 158.237542 184.933209 C 152.451542 184.933209 147.301342 183.520808 142.789142 180.696008 C 138.292342 177.855808 134.745941 173.829808 132.147741 168.620208 C 129.567141 163.408408 128.275741 157.226408 128.275741 150.072007 C 128.275741 142.902207 129.567141 136.711407 132.147741 131.501807 C 134.745941 126.292207 138.292342 122.272806 142.789142 119.448006 C 147.301342 116.607806 152.451542 115.186606 158.237542 115.186606 C 164.025742 115.186606 169.175943 116.607806 173.685943 119.448006 C 178.198143 122.272806 181.744543 126.292207 184.327343 131.501807 C 186.910143 136.711407 188.201543 142.902207 188.201543 150.072007 Z M 180.248543 150.072007 C 180.248543 144.193607 179.269543 139.234807 177.309343 135.193407 C 175.364543 131.136607 172.728943 128.076407 169.402543 126.010607 C 166.076143 123.929407 162.355942 122.888806 158.237542 122.888806 C 154.136742 122.888806 150.423142 123.929407 147.096742 126.010607 C 143.770342 128.076407 141.125942 131.136607 139.165742 135.193407 C 137.207742 139.234807 136.226542 144.193607 136.226542 150.072007 C 136.226542 155.935008 137.207742 160.896008 139.165742 164.950608 C 141.125942 168.992008 143.770342 172.052208 147.096742 174.133408 C 150.423142 176.199208 154.136742 177.233208 158.237542 177.233208 C 162.355942 177.233208 166.076143 176.199208 169.402543 174.133408 C 172.728943 172.052208 175.364543 168.992008 177.309343 164.950608 C 179.269543 160.896008 180.248543 155.935008 180.248543 150.072007 Z M 180.248543 150.072007 " stroke="#dbdbdb" stroke-width="1.399999" stroke-opacity="1" stroke-miterlimit="4"/></svg>