<svg xmlns="http://www.w3.org/2000/svg" xmlns:xlink="http://www.w3.org/1999/xlink" width="500" zoomAndPan="magnify" viewBox="0 0 375 374.999991" height="500" preserveAspectRatio="xMidYMid meet" version="1.0"><defs><clipPath id="b8b1cf2f91"><path d="M 23.523438 0 L 351.273438 0 L 351.273438 375 L 23.523438 375 Z M 23.523438 0 " clip-rule="nonzero"/></clipPath></defs><g clip-path="url(#b8b1cf2f91)"><path fill="#ffffff" d="M 312.878906 0.0820312 L 61.917969 0.0820312 C 40.753906 0.0820312 23.523438 17.324219 23.523438 38.6875 L 23.523438 292.054688 C 23.523438 313.40625 40.753906 330.652344 61.917969 330.652344 L 274.300781 330.652344 L 264.367188 295.984375 L 288.347656 318.277344 L 311.007812 339.273438 L 351.269531 374.871094 L 351.269531 38.671875 C 351.269531 17.316406 334.039062 0.0742188 312.875 0.0742188 Z M 240.59375 244.828125 C 240.59375 244.828125 233.847656 236.769531 228.226562 229.648438 C 252.753906 222.714844 262.128906 207.34375 262.128906 207.34375 C 254.445312 212.402344 247.148438 215.964844 240.59375 218.398438 C 231.222656 222.332031 222.234375 224.957031 213.425781 226.457031 C 195.449219 229.839844 178.972656 228.890625 164.929688 226.277344 C 154.25 224.214844 145.070312 221.21875 137.394531 218.21875 C 133.085938 216.527344 128.402344 214.464844 123.722656 211.839844 C 123.160156 211.46875 122.597656 211.277344 122.035156 210.90625 C 121.660156 210.726562 121.472656 210.535156 121.285156 210.339844 C 117.914062 208.472656 116.042969 207.164062 116.042969 207.164062 C 116.042969 207.164062 125.03125 222.152344 148.816406 229.273438 C 143.199219 236.398438 136.269531 244.828125 136.269531 244.828125 C 94.878906 243.519531 79.148438 216.335938 79.148438 216.335938 C 79.148438 156 106.117188 107.085938 106.117188 107.085938 C 133.085938 86.847656 158.746094 87.410156 158.746094 87.410156 L 160.613281 89.660156 C 126.90625 99.402344 111.359375 114.207031 111.359375 114.207031 C 111.359375 114.207031 115.480469 111.960938 122.410156 108.773438 C 142.449219 99.964844 158.375 97.53125 164.929688 96.96875 C 166.042969 96.78125 166.976562 96.59375 168.105469 96.59375 C 179.535156 95.09375 192.453125 94.71875 205.9375 96.21875 C 223.730469 98.28125 242.832031 103.527344 262.304688 114.207031 C 262.304688 114.207031 247.519531 100.152344 215.679688 90.410156 L 218.304688 87.410156 C 218.304688 87.410156 243.960938 86.847656 270.921875 107.085938 C 270.921875 107.085938 297.898438 156 297.898438 216.335938 C 297.898438 216.335938 281.972656 243.519531 240.59375 244.828125 Z M 153.496094 157.304688 C 142.824219 157.304688 134.394531 166.683594 134.394531 178.109375 C 134.394531 189.535156 143.011719 198.914062 153.496094 198.914062 C 164.171875 198.914062 172.597656 189.535156 172.597656 178.109375 C 172.789062 166.683594 164.171875 157.304688 153.496094 157.304688 M 221.863281 157.304688 C 211.183594 157.304688 202.761719 166.683594 202.761719 178.109375 C 202.761719 189.535156 211.363281 198.914062 221.863281 198.914062 C 232.527344 198.914062 240.964844 189.535156 240.964844 178.109375 C 240.964844 166.683594 232.527344 157.304688 221.863281 157.304688 " fill-opacity="1" fill-rule="nonzero"/></g></svg>