<svg xmlns="http://www.w3.org/2000/svg" xmlns:xlink="http://www.w3.org/1999/xlink" width="500" zoomAndPan="magnify" viewBox="0 0 375 374.999991" height="500" preserveAspectRatio="xMidYMid meet" version="1.0"><defs><g/></defs><rect x="-37.5" width="450" fill="rgba(0,0,0,0)" y="-37.499999" height="449.999989" fill-opacity="1"/><rect x="-37.5" width="450" fill="rgba(0,0,0,0)" y="-37.499999" height="449.999989" fill-opacity="1"/><rect x="-37.5" width="450" fill="rgba(0,0,0,0)" y="-37.499999" height="449.999989" fill-opacity="1"/><g fill="#dbdbdb" fill-opacity="1"><g transform="translate(0.0000045, 125.231098)"><g><path d="M 21.640625 0.609375 C 17.941406 0.609375 14.742188 -0.25 12.046875 -1.96875 C 9.359375 -3.6875 7.285156 -6.222656 5.828125 -9.578125 C 4.378906 -12.929688 3.65625 -17.054688 3.65625 -21.953125 C 3.65625 -26.890625 4.378906 -31.046875 5.828125 -34.421875 C 7.285156 -37.796875 9.359375 -40.347656 12.046875 -42.078125 C 14.742188 -43.816406 17.941406 -44.6875 21.640625 -44.6875 C 25.335938 -44.6875 28.515625 -43.820312 31.171875 -42.09375 C 33.835938 -40.375 35.882812 -37.828125 37.3125 -34.453125 C 38.738281 -31.078125 39.453125 -26.910156 39.453125 -21.953125 C 39.453125 -17.054688 38.738281 -12.9375 37.3125 -9.59375 C 35.882812 -6.25 33.835938 -3.710938 31.171875 -1.984375 C 28.515625 -0.253906 25.335938 0.609375 21.640625 0.609375 Z M 21.640625 -1.890625 C 24.929688 -1.890625 27.695312 -2.617188 29.9375 -4.078125 C 32.1875 -5.546875 33.882812 -7.769531 35.03125 -10.75 C 36.1875 -13.726562 36.765625 -17.460938 36.765625 -21.953125 C 36.765625 -26.503906 36.179688 -30.269531 35.015625 -33.25 C 33.847656 -36.238281 32.140625 -38.472656 29.890625 -39.953125 C 27.640625 -41.441406 24.890625 -42.1875 21.640625 -42.1875 C 18.390625 -42.1875 15.625 -41.4375 13.34375 -39.9375 C 11.070312 -38.445312 9.335938 -36.203125 8.140625 -33.203125 C 6.941406 -30.210938 6.34375 -26.460938 6.34375 -21.953125 C 6.34375 -17.441406 6.941406 -13.703125 8.140625 -10.734375 C 9.335938 -7.765625 11.070312 -5.546875 13.34375 -4.078125 C 15.625 -2.617188 18.390625 -1.890625 21.640625 -1.890625 Z M 21.640625 -1.890625 "/></g></g></g><g fill="#dbdbdb" fill-opacity="1"><g transform="translate(40.657784, 125.231098)"><g><path d="M 21.859375 -31.515625 L 21.859375 -29.453125 L 13.203125 -29.453125 L 13.203125 0 L 10.828125 0 L 10.828125 -29.453125 L 3.328125 -29.453125 L 3.328125 -31.515625 L 10.828125 -31.515625 L 10.828125 -36.765625 C 10.828125 -39.203125 11.347656 -41.03125 12.390625 -42.25 C 13.441406 -43.46875 15.15625 -44.078125 17.53125 -44.078125 L 22.15625 -44.078125 L 22.15625 -42 L 16.921875 -42 C 15.453125 -42 14.460938 -41.585938 13.953125 -40.765625 C 13.453125 -39.941406 13.203125 -38.769531 13.203125 -37.25 L 13.203125 -31.515625 Z M 21.859375 -31.515625 "/></g></g></g><g fill="#dbdbdb" fill-opacity="1"><g transform="translate(63.241349, 125.231098)"><g/></g></g><g fill="#dbdbdb" fill-opacity="1"><g transform="translate(75.9801, 125.231098)"><g><path d="M 19.171875 -29.453125 L 11.953125 -29.453125 L 11.953125 -7.078125 C 11.953125 -5.609375 12.078125 -4.539062 12.328125 -3.875 C 12.585938 -3.21875 13.066406 -2.800781 13.765625 -2.625 C 14.460938 -2.457031 15.472656 -2.375 16.796875 -2.375 L 19.484375 -2.375 L 19.484375 -0.3125 C 19.097656 -0.1875 18.550781 -0.101562 17.84375 -0.0625 C 17.144531 -0.0195312 16.410156 0 15.640625 0 C 14.054688 0 12.820312 -0.238281 11.9375 -0.71875 C 11.050781 -1.195312 10.429688 -1.953125 10.078125 -2.984375 C 9.722656 -4.023438 9.546875 -5.390625 9.546875 -7.078125 L 9.546875 -29.453125 L 4.421875 -29.453125 L 4.421875 -31.515625 L 9.546875 -31.515625 L 10.03125 -40.359375 L 11.953125 -40.359375 L 11.953125 -31.515625 L 19.171875 -31.515625 Z M 19.171875 -29.453125 "/></g></g></g><g fill="#dbdbdb" fill-opacity="1"><g transform="translate(96.826332, 125.231098)"><g><path d="M 5.484375 0 L 5.484375 -45.296875 L 7.6875 -45.296875 L 7.6875 -26.828125 C 8.226562 -27.816406 9.003906 -28.710938 10.015625 -29.515625 C 11.035156 -30.328125 12.25 -30.960938 13.65625 -31.421875 C 15.0625 -31.890625 16.617188 -32.125 18.328125 -32.125 C 20.421875 -32.125 22.296875 -31.753906 23.953125 -31.015625 C 25.609375 -30.273438 26.914062 -29.242188 27.875 -27.921875 C 28.84375 -26.597656 29.328125 -25.070312 29.328125 -23.34375 L 29.328125 0 L 26.953125 0 L 26.953125 -22.4375 C 26.953125 -24.75 26.171875 -26.554688 24.609375 -27.859375 C 23.054688 -29.160156 20.941406 -29.8125 18.265625 -29.8125 C 16.410156 -29.8125 14.691406 -29.523438 13.109375 -28.953125 C 11.523438 -28.390625 10.253906 -27.523438 9.296875 -26.359375 C 8.335938 -25.203125 7.859375 -23.734375 7.859375 -21.953125 L 7.859375 0 Z M 5.484375 0 "/></g></g></g><g fill="#dbdbdb" fill-opacity="1"><g transform="translate(128.584138, 125.231098)"><g><path d="M 6.28125 -15.1875 C 6.28125 -12.800781 6.675781 -10.585938 7.46875 -8.546875 C 8.257812 -6.503906 9.5 -4.851562 11.1875 -3.59375 C 12.875 -2.332031 15.050781 -1.703125 17.71875 -1.703125 C 20.21875 -1.703125 22.347656 -2.300781 24.109375 -3.5 C 25.878906 -4.695312 26.945312 -6.332031 27.3125 -8.40625 L 29.90625 -8.40625 C 29.5 -6.375 28.6875 -4.6875 27.46875 -3.34375 C 26.25 -2.007812 24.789062 -1.015625 23.09375 -0.359375 C 21.394531 0.285156 19.601562 0.609375 17.71875 0.609375 C 14.945312 0.609375 12.507812 -0.015625 10.40625 -1.265625 C 8.300781 -2.515625 6.65625 -4.335938 5.46875 -6.734375 C 4.28125 -9.128906 3.6875 -12.046875 3.6875 -15.484375 C 3.6875 -18.960938 4.21875 -21.945312 5.28125 -24.4375 C 6.351562 -26.925781 7.910156 -28.828125 9.953125 -30.140625 C 11.992188 -31.460938 14.457031 -32.125 17.34375 -32.125 C 20.070312 -32.125 22.394531 -31.523438 24.3125 -30.328125 C 26.226562 -29.128906 27.695312 -27.394531 28.71875 -25.125 C 29.75 -22.863281 30.265625 -20.117188 30.265625 -16.890625 L 30.265625 -15.1875 Z M 6.34375 -17.5 L 27.734375 -17.5 C 27.734375 -19.832031 27.359375 -21.925781 26.609375 -23.78125 C 25.859375 -25.644531 24.707031 -27.113281 23.15625 -28.1875 C 21.613281 -29.269531 19.65625 -29.8125 17.28125 -29.8125 C 14.695312 -29.8125 12.597656 -29.195312 10.984375 -27.96875 C 9.367188 -26.738281 8.1875 -25.175781 7.4375 -23.28125 C 6.6875 -21.394531 6.320312 -19.46875 6.34375 -17.5 Z M 6.34375 -17.5 "/></g></g></g><g fill="#dbdbdb" fill-opacity="1"><g transform="translate(160.098125, 125.231098)"><g/></g></g><g fill="#dbdbdb" fill-opacity="1"><g transform="translate(172.836882, 125.231098)"><g><path d="M 6.703125 0 L 6.703125 -44.078125 L 20.296875 -44.078125 C 23.390625 -44.078125 26.128906 -43.570312 28.515625 -42.5625 C 30.898438 -41.5625 32.769531 -40.066406 34.125 -38.078125 C 35.476562 -36.085938 36.15625 -33.617188 36.15625 -30.671875 C 36.15625 -27.722656 35.488281 -25.222656 34.15625 -23.171875 C 32.820312 -21.117188 30.992188 -19.554688 28.671875 -18.484375 C 26.347656 -17.421875 23.679688 -16.890625 20.671875 -16.890625 L 9.328125 -16.890625 L 9.328125 0 Z M 9.328125 -19.515625 L 20.671875 -19.515625 C 24.492188 -19.515625 27.582031 -20.488281 29.9375 -22.4375 C 32.289062 -24.382812 33.46875 -27.1875 33.46875 -30.84375 C 33.46875 -34.507812 32.269531 -37.203125 29.875 -38.921875 C 27.476562 -40.648438 24.265625 -41.515625 20.234375 -41.515625 L 9.328125 -41.515625 Z M 9.328125 -19.515625 "/></g></g></g><g fill="#dbdbdb" fill-opacity="1"><g transform="translate(208.221722, 125.231098)"><g><path d="M 6.28125 -15.1875 C 6.28125 -12.800781 6.675781 -10.585938 7.46875 -8.546875 C 8.257812 -6.503906 9.5 -4.851562 11.1875 -3.59375 C 12.875 -2.332031 15.050781 -1.703125 17.71875 -1.703125 C 20.21875 -1.703125 22.347656 -2.300781 24.109375 -3.5 C 25.878906 -4.695312 26.945312 -6.332031 27.3125 -8.40625 L 29.90625 -8.40625 C 29.5 -6.375 28.6875 -4.6875 27.46875 -3.34375 C 26.25 -2.007812 24.789062 -1.015625 23.09375 -0.359375 C 21.394531 0.285156 19.601562 0.609375 17.71875 0.609375 C 14.945312 0.609375 12.507812 -0.015625 10.40625 -1.265625 C 8.300781 -2.515625 6.65625 -4.335938 5.46875 -6.734375 C 4.28125 -9.128906 3.6875 -12.046875 3.6875 -15.484375 C 3.6875 -18.960938 4.21875 -21.945312 5.28125 -24.4375 C 6.351562 -26.925781 7.910156 -28.828125 9.953125 -30.140625 C 11.992188 -31.460938 14.457031 -32.125 17.34375 -32.125 C 20.070312 -32.125 22.394531 -31.523438 24.3125 -30.328125 C 26.226562 -29.128906 27.695312 -27.394531 28.71875 -25.125 C 29.75 -22.863281 30.265625 -20.117188 30.265625 -16.890625 L 30.265625 -15.1875 Z M 6.34375 -17.5 L 27.734375 -17.5 C 27.734375 -19.832031 27.359375 -21.925781 26.609375 -23.78125 C 25.859375 -25.644531 24.707031 -27.113281 23.15625 -28.1875 C 21.613281 -29.269531 19.65625 -29.8125 17.28125 -29.8125 C 14.695312 -29.8125 12.597656 -29.195312 10.984375 -27.96875 C 9.367188 -26.738281 8.1875 -25.175781 7.4375 -23.28125 C 6.6875 -21.394531 6.320312 -19.46875 6.34375 -17.5 Z M 6.34375 -17.5 "/></g></g></g><g fill="#dbdbdb" fill-opacity="1"><g transform="translate(239.735699, 125.231098)"><g><path d="M 17.015625 0.609375 C 14.285156 0.609375 11.894531 0.0195312 9.84375 -1.15625 C 7.789062 -2.332031 6.195312 -4.125 5.0625 -6.53125 C 3.925781 -8.945312 3.359375 -11.992188 3.359375 -15.671875 C 3.359375 -18.960938 3.847656 -21.84375 4.828125 -24.3125 C 5.816406 -26.78125 7.320312 -28.695312 9.34375 -30.0625 C 11.363281 -31.4375 13.921875 -32.125 17.015625 -32.125 C 19.710938 -32.125 22.066406 -31.53125 24.078125 -30.34375 C 26.085938 -29.15625 27.65625 -27.347656 28.78125 -24.921875 C 29.914062 -22.492188 30.484375 -19.410156 30.484375 -15.671875 C 30.484375 -12.421875 29.992188 -9.570312 29.015625 -7.125 C 28.046875 -4.6875 26.566406 -2.785156 24.578125 -1.421875 C 22.597656 -0.0664062 20.078125 0.609375 17.015625 0.609375 Z M 17.015625 -1.640625 C 19.222656 -1.640625 21.148438 -2.144531 22.796875 -3.15625 C 24.441406 -4.175781 25.722656 -5.722656 26.640625 -7.796875 C 27.554688 -9.867188 28.015625 -12.492188 28.015625 -15.671875 C 28.015625 -18.492188 27.617188 -20.96875 26.828125 -23.09375 C 26.035156 -25.21875 24.828125 -26.867188 23.203125 -28.046875 C 21.578125 -29.222656 19.515625 -29.8125 17.015625 -29.8125 C 14.773438 -29.8125 12.816406 -29.300781 11.140625 -28.28125 C 9.460938 -27.269531 8.160156 -25.71875 7.234375 -23.625 C 6.316406 -21.53125 5.859375 -18.878906 5.859375 -15.671875 C 5.859375 -12.867188 6.257812 -10.414062 7.0625 -8.3125 C 7.863281 -6.207031 9.09375 -4.566406 10.75 -3.390625 C 12.40625 -2.222656 14.492188 -1.640625 17.015625 -1.640625 Z M 17.015625 -1.640625 "/></g></g></g><g fill="#dbdbdb" fill-opacity="1"><g transform="translate(271.127746, 125.231098)"><g><path d="M 5.484375 9.8125 L 5.484375 -31.515625 L 7.796875 -31.515625 L 7.921875 -25.0625 C 8.148438 -25.625 8.503906 -26.300781 8.984375 -27.09375 C 9.472656 -27.894531 10.144531 -28.679688 11 -29.453125 C 11.851562 -30.222656 12.921875 -30.859375 14.203125 -31.359375 C 15.484375 -31.867188 17.03125 -32.125 18.84375 -32.125 C 21.519531 -32.125 23.863281 -31.554688 25.875 -30.421875 C 27.894531 -29.285156 29.460938 -27.546875 30.578125 -25.203125 C 31.691406 -22.867188 32.25 -19.914062 32.25 -16.34375 C 32.25 -12.945312 31.765625 -9.976562 30.796875 -7.4375 C 29.835938 -4.894531 28.363281 -2.914062 26.375 -1.5 C 24.394531 -0.09375 21.882812 0.609375 18.84375 0.609375 C 17.03125 0.609375 15.484375 0.351562 14.203125 -0.15625 C 12.921875 -0.675781 11.859375 -1.332031 11.015625 -2.125 C 10.171875 -2.925781 9.503906 -3.734375 9.015625 -4.546875 C 8.535156 -5.359375 8.171875 -6.066406 7.921875 -6.671875 L 7.921875 9.8125 Z M 18.84375 -1.640625 C 22.113281 -1.640625 24.738281 -2.820312 26.71875 -5.1875 C 28.695312 -7.5625 29.6875 -11.195312 29.6875 -16.09375 C 29.6875 -20.21875 28.800781 -23.535156 27.03125 -26.046875 C 25.269531 -28.554688 22.539062 -29.8125 18.84375 -29.8125 C 15.28125 -29.8125 12.550781 -28.570312 10.65625 -26.09375 C 8.769531 -23.613281 7.828125 -20.28125 7.828125 -16.09375 C 7.828125 -13.3125 8.25 -10.832031 9.09375 -8.65625 C 9.9375 -6.476562 11.175781 -4.765625 12.8125 -3.515625 C 14.445312 -2.265625 16.457031 -1.640625 18.84375 -1.640625 Z M 18.84375 -1.640625 "/></g></g></g><g fill="#dbdbdb" fill-opacity="1"><g transform="translate(304.287611, 125.231098)"><g><path d="M 11.34375 0.25 C 10.28125 0.25 9.378906 0.0546875 8.640625 -0.328125 C 7.898438 -0.722656 7.296875 -1.265625 6.828125 -1.953125 C 6.359375 -2.640625 6.015625 -3.445312 5.796875 -4.375 C 5.585938 -5.300781 5.484375 -6.300781 5.484375 -7.375 L 5.484375 -45.296875 L 7.859375 -45.296875 L 7.859375 -7.375 C 7.859375 -5.34375 8.226562 -3.898438 8.96875 -3.046875 C 9.71875 -2.191406 10.53125 -1.765625 11.40625 -1.765625 L 13.328125 -1.765625 L 13.328125 0 C 12.972656 0.0820312 12.609375 0.144531 12.234375 0.1875 C 11.859375 0.226562 11.5625 0.25 11.34375 0.25 Z M 11.34375 0.25 "/></g></g></g><g fill="#dbdbdb" fill-opacity="1"><g transform="translate(318.336981, 125.231098)"><g><path d="M 6.28125 -15.1875 C 6.28125 -12.800781 6.675781 -10.585938 7.46875 -8.546875 C 8.257812 -6.503906 9.5 -4.851562 11.1875 -3.59375 C 12.875 -2.332031 15.050781 -1.703125 17.71875 -1.703125 C 20.21875 -1.703125 22.347656 -2.300781 24.109375 -3.5 C 25.878906 -4.695312 26.945312 -6.332031 27.3125 -8.40625 L 29.90625 -8.40625 C 29.5 -6.375 28.6875 -4.6875 27.46875 -3.34375 C 26.25 -2.007812 24.789062 -1.015625 23.09375 -0.359375 C 21.394531 0.285156 19.601562 0.609375 17.71875 0.609375 C 14.945312 0.609375 12.507812 -0.015625 10.40625 -1.265625 C 8.300781 -2.515625 6.65625 -4.335938 5.46875 -6.734375 C 4.28125 -9.128906 3.6875 -12.046875 3.6875 -15.484375 C 3.6875 -18.960938 4.21875 -21.945312 5.28125 -24.4375 C 6.351562 -26.925781 7.910156 -28.828125 9.953125 -30.140625 C 11.992188 -31.460938 14.457031 -32.125 17.34375 -32.125 C 20.070312 -32.125 22.394531 -31.523438 24.3125 -30.328125 C 26.226562 -29.128906 27.695312 -27.394531 28.71875 -25.125 C 29.75 -22.863281 30.265625 -20.117188 30.265625 -16.890625 L 30.265625 -15.1875 Z M 6.34375 -17.5 L 27.734375 -17.5 C 27.734375 -19.832031 27.359375 -21.925781 26.609375 -23.78125 C 25.859375 -25.644531 24.707031 -27.113281 23.15625 -28.1875 C 21.613281 -29.269531 19.65625 -29.8125 17.28125 -29.8125 C 14.695312 -29.8125 12.597656 -29.195312 10.984375 -27.96875 C 9.367188 -26.738281 8.1875 -25.175781 7.4375 -23.28125 C 6.6875 -21.394531 6.320312 -19.46875 6.34375 -17.5 Z M 6.34375 -17.5 "/></g></g></g><g fill="#dbdbdb" fill-opacity="1"><g transform="translate(0.0000045, 209.103471)"><g><path d="M 6.703125 0 L 6.703125 -44.078125 L 19.078125 -44.078125 C 24.015625 -44.078125 27.847656 -43.101562 30.578125 -41.15625 C 33.316406 -39.207031 34.6875 -36.378906 34.6875 -32.671875 C 34.6875 -30.179688 34.023438 -28.070312 32.703125 -26.34375 C 31.390625 -24.613281 29.144531 -23.289062 25.96875 -22.375 C 27.59375 -22.113281 29.019531 -21.679688 30.25 -21.078125 C 31.476562 -20.484375 32.503906 -19.742188 33.328125 -18.859375 C 34.148438 -17.972656 34.765625 -16.9375 35.171875 -15.75 C 35.578125 -14.5625 35.78125 -13.234375 35.78125 -11.765625 C 35.78125 -7.847656 34.332031 -4.90625 31.4375 -2.9375 C 28.539062 -0.976562 24.484375 0 19.265625 0 Z M 9.078125 -2.5 L 18.96875 -2.5 C 23.65625 -2.5 27.234375 -3.171875 29.703125 -4.515625 C 32.171875 -5.867188 33.40625 -8.164062 33.40625 -11.40625 C 33.40625 -13.78125 32.789062 -15.671875 31.5625 -17.078125 C 30.332031 -18.492188 28.6875 -19.503906 26.625 -20.109375 C 24.5625 -20.722656 22.289062 -21.03125 19.8125 -21.03125 L 9.078125 -21.03125 Z M 9.078125 -23.53125 L 19.8125 -23.53125 C 21.195312 -23.53125 22.613281 -23.648438 24.0625 -23.890625 C 25.519531 -24.140625 26.875 -24.582031 28.125 -25.21875 C 29.375 -25.863281 30.382812 -26.765625 31.15625 -27.921875 C 31.925781 -29.078125 32.3125 -30.5625 32.3125 -32.375 C 32.3125 -35.601562 31.070312 -37.953125 28.59375 -39.421875 C 26.113281 -40.898438 22.863281 -41.640625 18.84375 -41.640625 L 9.078125 -41.640625 Z M 9.078125 -23.53125 "/></g></g></g><g fill="#dbdbdb" fill-opacity="1"><g transform="translate(37.5489, 209.103471)"><g><path d="M 6.796875 10.0625 C 5.253906 10.0625 4.238281 9.976562 3.75 9.8125 C 3.257812 9.65625 3.015625 9.578125 3.015625 9.578125 L 3.015625 7.921875 L 6.34375 7.921875 C 7.3125 7.921875 8.148438 7.816406 8.859375 7.609375 C 9.578125 7.410156 10.1875 7.140625 10.6875 6.796875 C 11.1875 6.453125 11.597656 6.039062 11.921875 5.5625 C 12.242188 5.082031 12.519531 4.570312 12.75 4.03125 L 14.359375 -0.1875 L 2.015625 -31.515625 L 4.578125 -31.515625 L 15.640625 -3.421875 L 26.453125 -31.515625 L 28.78125 -31.515625 L 15 4.578125 C 14.46875 5.890625 13.804688 6.945312 13.015625 7.75 C 12.222656 8.5625 11.300781 9.148438 10.25 9.515625 C 9.207031 9.878906 8.054688 10.0625 6.796875 10.0625 Z M 6.796875 10.0625 "/></g></g></g><g fill="#dbdbdb" fill-opacity="1"><g transform="translate(65.893036, 209.103471)"><g/></g></g><g fill="#dbdbdb" fill-opacity="1"><g transform="translate(78.631788, 209.103471)"><g><path d="M 19.171875 -29.453125 L 11.953125 -29.453125 L 11.953125 -7.078125 C 11.953125 -5.609375 12.078125 -4.539062 12.328125 -3.875 C 12.585938 -3.21875 13.066406 -2.800781 13.765625 -2.625 C 14.460938 -2.457031 15.472656 -2.375 16.796875 -2.375 L 19.484375 -2.375 L 19.484375 -0.3125 C 19.097656 -0.1875 18.550781 -0.101562 17.84375 -0.0625 C 17.144531 -0.0195312 16.410156 0 15.640625 0 C 14.054688 0 12.820312 -0.238281 11.9375 -0.71875 C 11.050781 -1.195312 10.429688 -1.953125 10.078125 -2.984375 C 9.722656 -4.023438 9.546875 -5.390625 9.546875 -7.078125 L 9.546875 -29.453125 L 4.421875 -29.453125 L 4.421875 -31.515625 L 9.546875 -31.515625 L 10.03125 -40.359375 L 11.953125 -40.359375 L 11.953125 -31.515625 L 19.171875 -31.515625 Z M 19.171875 -29.453125 "/></g></g></g><g fill="#dbdbdb" fill-opacity="1"><g transform="translate(99.47802, 209.103471)"><g><path d="M 5.484375 0 L 5.484375 -45.296875 L 7.6875 -45.296875 L 7.6875 -26.828125 C 8.226562 -27.816406 9.003906 -28.710938 10.015625 -29.515625 C 11.035156 -30.328125 12.25 -30.960938 13.65625 -31.421875 C 15.0625 -31.890625 16.617188 -32.125 18.328125 -32.125 C 20.421875 -32.125 22.296875 -31.753906 23.953125 -31.015625 C 25.609375 -30.273438 26.914062 -29.242188 27.875 -27.921875 C 28.84375 -26.597656 29.328125 -25.070312 29.328125 -23.34375 L 29.328125 0 L 26.953125 0 L 26.953125 -22.4375 C 26.953125 -24.75 26.171875 -26.554688 24.609375 -27.859375 C 23.054688 -29.160156 20.941406 -29.8125 18.265625 -29.8125 C 16.410156 -29.8125 14.691406 -29.523438 13.109375 -28.953125 C 11.523438 -28.390625 10.253906 -27.523438 9.296875 -26.359375 C 8.335938 -25.203125 7.859375 -23.734375 7.859375 -21.953125 L 7.859375 0 Z M 5.484375 0 "/></g></g></g><g fill="#dbdbdb" fill-opacity="1"><g transform="translate(131.235826, 209.103471)"><g><path d="M 6.28125 -15.1875 C 6.28125 -12.800781 6.675781 -10.585938 7.46875 -8.546875 C 8.257812 -6.503906 9.5 -4.851562 11.1875 -3.59375 C 12.875 -2.332031 15.050781 -1.703125 17.71875 -1.703125 C 20.21875 -1.703125 22.347656 -2.300781 24.109375 -3.5 C 25.878906 -4.695312 26.945312 -6.332031 27.3125 -8.40625 L 29.90625 -8.40625 C 29.5 -6.375 28.6875 -4.6875 27.46875 -3.34375 C 26.25 -2.007812 24.789062 -1.015625 23.09375 -0.359375 C 21.394531 0.285156 19.601562 0.609375 17.71875 0.609375 C 14.945312 0.609375 12.507812 -0.015625 10.40625 -1.265625 C 8.300781 -2.515625 6.65625 -4.335938 5.46875 -6.734375 C 4.28125 -9.128906 3.6875 -12.046875 3.6875 -15.484375 C 3.6875 -18.960938 4.21875 -21.945312 5.28125 -24.4375 C 6.351562 -26.925781 7.910156 -28.828125 9.953125 -30.140625 C 11.992188 -31.460938 14.457031 -32.125 17.34375 -32.125 C 20.070312 -32.125 22.394531 -31.523438 24.3125 -30.328125 C 26.226562 -29.128906 27.695312 -27.394531 28.71875 -25.125 C 29.75 -22.863281 30.265625 -20.117188 30.265625 -16.890625 L 30.265625 -15.1875 Z M 6.34375 -17.5 L 27.734375 -17.5 C 27.734375 -19.832031 27.359375 -21.925781 26.609375 -23.78125 C 25.859375 -25.644531 24.707031 -27.113281 23.15625 -28.1875 C 21.613281 -29.269531 19.65625 -29.8125 17.28125 -29.8125 C 14.695312 -29.8125 12.597656 -29.195312 10.984375 -27.96875 C 9.367188 -26.738281 8.1875 -25.175781 7.4375 -23.28125 C 6.6875 -21.394531 6.320312 -19.46875 6.34375 -17.5 Z M 6.34375 -17.5 "/></g></g></g><g fill="#dbdbdb" fill-opacity="1"><g transform="translate(162.749803, 209.103471)"><g/></g></g><g fill="#dbdbdb" fill-opacity="1"><g transform="translate(175.48855, 209.103471)"><g><path d="M 6.703125 0 L 6.703125 -44.078125 L 20.296875 -44.078125 C 23.390625 -44.078125 26.128906 -43.570312 28.515625 -42.5625 C 30.898438 -41.5625 32.769531 -40.066406 34.125 -38.078125 C 35.476562 -36.085938 36.15625 -33.617188 36.15625 -30.671875 C 36.15625 -27.722656 35.488281 -25.222656 34.15625 -23.171875 C 32.820312 -21.117188 30.992188 -19.554688 28.671875 -18.484375 C 26.347656 -17.421875 23.679688 -16.890625 20.671875 -16.890625 L 9.328125 -16.890625 L 9.328125 0 Z M 9.328125 -19.515625 L 20.671875 -19.515625 C 24.492188 -19.515625 27.582031 -20.488281 29.9375 -22.4375 C 32.289062 -24.382812 33.46875 -27.1875 33.46875 -30.84375 C 33.46875 -34.507812 32.269531 -37.203125 29.875 -38.921875 C 27.476562 -40.648438 24.265625 -41.515625 20.234375 -41.515625 L 9.328125 -41.515625 Z M 9.328125 -19.515625 "/></g></g></g><g fill="#dbdbdb" fill-opacity="1"><g transform="translate(210.87339, 209.103471)"><g><path d="M 6.28125 -15.1875 C 6.28125 -12.800781 6.675781 -10.585938 7.46875 -8.546875 C 8.257812 -6.503906 9.5 -4.851562 11.1875 -3.59375 C 12.875 -2.332031 15.050781 -1.703125 17.71875 -1.703125 C 20.21875 -1.703125 22.347656 -2.300781 24.109375 -3.5 C 25.878906 -4.695312 26.945312 -6.332031 27.3125 -8.40625 L 29.90625 -8.40625 C 29.5 -6.375 28.6875 -4.6875 27.46875 -3.34375 C 26.25 -2.007812 24.789062 -1.015625 23.09375 -0.359375 C 21.394531 0.285156 19.601562 0.609375 17.71875 0.609375 C 14.945312 0.609375 12.507812 -0.015625 10.40625 -1.265625 C 8.300781 -2.515625 6.65625 -4.335938 5.46875 -6.734375 C 4.28125 -9.128906 3.6875 -12.046875 3.6875 -15.484375 C 3.6875 -18.960938 4.21875 -21.945312 5.28125 -24.4375 C 6.351562 -26.925781 7.910156 -28.828125 9.953125 -30.140625 C 11.992188 -31.460938 14.457031 -32.125 17.34375 -32.125 C 20.070312 -32.125 22.394531 -31.523438 24.3125 -30.328125 C 26.226562 -29.128906 27.695312 -27.394531 28.71875 -25.125 C 29.75 -22.863281 30.265625 -20.117188 30.265625 -16.890625 L 30.265625 -15.1875 Z M 6.34375 -17.5 L 27.734375 -17.5 C 27.734375 -19.832031 27.359375 -21.925781 26.609375 -23.78125 C 25.859375 -25.644531 24.707031 -27.113281 23.15625 -28.1875 C 21.613281 -29.269531 19.65625 -29.8125 17.28125 -29.8125 C 14.695312 -29.8125 12.597656 -29.195312 10.984375 -27.96875 C 9.367188 -26.738281 8.1875 -25.175781 7.4375 -23.28125 C 6.6875 -21.394531 6.320312 -19.46875 6.34375 -17.5 Z M 6.34375 -17.5 "/></g></g></g><g fill="#dbdbdb" fill-opacity="1"><g transform="translate(242.387367, 209.103471)"><g><path d="M 17.015625 0.609375 C 14.285156 0.609375 11.894531 0.0195312 9.84375 -1.15625 C 7.789062 -2.332031 6.195312 -4.125 5.0625 -6.53125 C 3.925781 -8.945312 3.359375 -11.992188 3.359375 -15.671875 C 3.359375 -18.960938 3.847656 -21.84375 4.828125 -24.3125 C 5.816406 -26.78125 7.320312 -28.695312 9.34375 -30.0625 C 11.363281 -31.4375 13.921875 -32.125 17.015625 -32.125 C 19.710938 -32.125 22.066406 -31.53125 24.078125 -30.34375 C 26.085938 -29.15625 27.65625 -27.347656 28.78125 -24.921875 C 29.914062 -22.492188 30.484375 -19.410156 30.484375 -15.671875 C 30.484375 -12.421875 29.992188 -9.570312 29.015625 -7.125 C 28.046875 -4.6875 26.566406 -2.785156 24.578125 -1.421875 C 22.597656 -0.0664062 20.078125 0.609375 17.015625 0.609375 Z M 17.015625 -1.640625 C 19.222656 -1.640625 21.148438 -2.144531 22.796875 -3.15625 C 24.441406 -4.175781 25.722656 -5.722656 26.640625 -7.796875 C 27.554688 -9.867188 28.015625 -12.492188 28.015625 -15.671875 C 28.015625 -18.492188 27.617188 -20.96875 26.828125 -23.09375 C 26.035156 -25.21875 24.828125 -26.867188 23.203125 -28.046875 C 21.578125 -29.222656 19.515625 -29.8125 17.015625 -29.8125 C 14.773438 -29.8125 12.816406 -29.300781 11.140625 -28.28125 C 9.460938 -27.269531 8.160156 -25.71875 7.234375 -23.625 C 6.316406 -21.53125 5.859375 -18.878906 5.859375 -15.671875 C 5.859375 -12.867188 6.257812 -10.414062 7.0625 -8.3125 C 7.863281 -6.207031 9.09375 -4.566406 10.75 -3.390625 C 12.40625 -2.222656 14.492188 -1.640625 17.015625 -1.640625 Z M 17.015625 -1.640625 "/></g></g></g><g fill="#dbdbdb" fill-opacity="1"><g transform="translate(273.779414, 209.103471)"><g><path d="M 5.484375 9.8125 L 5.484375 -31.515625 L 7.796875 -31.515625 L 7.921875 -25.0625 C 8.148438 -25.625 8.503906 -26.300781 8.984375 -27.09375 C 9.472656 -27.894531 10.144531 -28.679688 11 -29.453125 C 11.851562 -30.222656 12.921875 -30.859375 14.203125 -31.359375 C 15.484375 -31.867188 17.03125 -32.125 18.84375 -32.125 C 21.519531 -32.125 23.863281 -31.554688 25.875 -30.421875 C 27.894531 -29.285156 29.460938 -27.546875 30.578125 -25.203125 C 31.691406 -22.867188 32.25 -19.914062 32.25 -16.34375 C 32.25 -12.945312 31.765625 -9.976562 30.796875 -7.4375 C 29.835938 -4.894531 28.363281 -2.914062 26.375 -1.5 C 24.394531 -0.09375 21.882812 0.609375 18.84375 0.609375 C 17.03125 0.609375 15.484375 0.351562 14.203125 -0.15625 C 12.921875 -0.675781 11.859375 -1.332031 11.015625 -2.125 C 10.171875 -2.925781 9.503906 -3.734375 9.015625 -4.546875 C 8.535156 -5.359375 8.171875 -6.066406 7.921875 -6.671875 L 7.921875 9.8125 Z M 18.84375 -1.640625 C 22.113281 -1.640625 24.738281 -2.820312 26.71875 -5.1875 C 28.695312 -7.5625 29.6875 -11.195312 29.6875 -16.09375 C 29.6875 -20.21875 28.800781 -23.535156 27.03125 -26.046875 C 25.269531 -28.554688 22.539062 -29.8125 18.84375 -29.8125 C 15.28125 -29.8125 12.550781 -28.570312 10.65625 -26.09375 C 8.769531 -23.613281 7.828125 -20.28125 7.828125 -16.09375 C 7.828125 -13.3125 8.25 -10.832031 9.09375 -8.65625 C 9.9375 -6.476562 11.175781 -4.765625 12.8125 -3.515625 C 14.445312 -2.265625 16.457031 -1.640625 18.84375 -1.640625 Z M 18.84375 -1.640625 "/></g></g></g><g fill="#dbdbdb" fill-opacity="1"><g transform="translate(306.93928, 209.103471)"><g><path d="M 11.34375 0.25 C 10.28125 0.25 9.378906 0.0546875 8.640625 -0.328125 C 7.898438 -0.722656 7.296875 -1.265625 6.828125 -1.953125 C 6.359375 -2.640625 6.015625 -3.445312 5.796875 -4.375 C 5.585938 -5.300781 5.484375 -6.300781 5.484375 -7.375 L 5.484375 -45.296875 L 7.859375 -45.296875 L 7.859375 -7.375 C 7.859375 -5.34375 8.226562 -3.898438 8.96875 -3.046875 C 9.71875 -2.191406 10.53125 -1.765625 11.40625 -1.765625 L 13.328125 -1.765625 L 13.328125 0 C 12.972656 0.0820312 12.609375 0.144531 12.234375 0.1875 C 11.859375 0.226562 11.5625 0.25 11.34375 0.25 Z M 11.34375 0.25 "/></g></g></g><g fill="#dbdbdb" fill-opacity="1"><g transform="translate(320.988649, 209.103471)"><g><path d="M 6.28125 -15.1875 C 6.28125 -12.800781 6.675781 -10.585938 7.46875 -8.546875 C 8.257812 -6.503906 9.5 -4.851562 11.1875 -3.59375 C 12.875 -2.332031 15.050781 -1.703125 17.71875 -1.703125 C 20.21875 -1.703125 22.347656 -2.300781 24.109375 -3.5 C 25.878906 -4.695312 26.945312 -6.332031 27.3125 -8.40625 L 29.90625 -8.40625 C 29.5 -6.375 28.6875 -4.6875 27.46875 -3.34375 C 26.25 -2.007812 24.789062 -1.015625 23.09375 -0.359375 C 21.394531 0.285156 19.601562 0.609375 17.71875 0.609375 C 14.945312 0.609375 12.507812 -0.015625 10.40625 -1.265625 C 8.300781 -2.515625 6.65625 -4.335938 5.46875 -6.734375 C 4.28125 -9.128906 3.6875 -12.046875 3.6875 -15.484375 C 3.6875 -18.960938 4.21875 -21.945312 5.28125 -24.4375 C 6.351562 -26.925781 7.910156 -28.828125 9.953125 -30.140625 C 11.992188 -31.460938 14.457031 -32.125 17.34375 -32.125 C 20.070312 -32.125 22.394531 -31.523438 24.3125 -30.328125 C 26.226562 -29.128906 27.695312 -27.394531 28.71875 -25.125 C 29.75 -22.863281 30.265625 -20.117188 30.265625 -16.890625 L 30.265625 -15.1875 Z M 6.34375 -17.5 L 27.734375 -17.5 C 27.734375 -19.832031 27.359375 -21.925781 26.609375 -23.78125 C 25.859375 -25.644531 24.707031 -27.113281 23.15625 -28.1875 C 21.613281 -29.269531 19.65625 -29.8125 17.28125 -29.8125 C 14.695312 -29.8125 12.597656 -29.195312 10.984375 -27.96875 C 9.367188 -26.738281 8.1875 -25.175781 7.4375 -23.28125 C 6.6875 -21.394531 6.320312 -19.46875 6.34375 -17.5 Z M 6.34375 -17.5 "/></g></g></g><g fill="#dbdbdb" fill-opacity="1"><g transform="translate(0.0000045, 292.975843)"><g><path d="M 6.703125 -44.078125 L 31.640625 -44.078125 L 31.640625 -41.640625 L 9.328125 -41.640625 L 9.328125 -23.59375 L 30.0625 -23.59375 L 30.0625 -21.09375 L 9.328125 -21.09375 L 9.328125 0 L 6.703125 0 Z M 6.703125 -44.078125 "/></g></g></g><g fill="#dbdbdb" fill-opacity="1"><g transform="translate(32.55027, 292.975843)"><g><path d="M 17.015625 0.609375 C 14.285156 0.609375 11.894531 0.0195312 9.84375 -1.15625 C 7.789062 -2.332031 6.195312 -4.125 5.0625 -6.53125 C 3.925781 -8.945312 3.359375 -11.992188 3.359375 -15.671875 C 3.359375 -18.960938 3.847656 -21.84375 4.828125 -24.3125 C 5.816406 -26.78125 7.320312 -28.695312 9.34375 -30.0625 C 11.363281 -31.4375 13.921875 -32.125 17.015625 -32.125 C 19.710938 -32.125 22.066406 -31.53125 24.078125 -30.34375 C 26.085938 -29.15625 27.65625 -27.347656 28.78125 -24.921875 C 29.914062 -22.492188 30.484375 -19.410156 30.484375 -15.671875 C 30.484375 -12.421875 29.992188 -9.570312 29.015625 -7.125 C 28.046875 -4.6875 26.566406 -2.785156 24.578125 -1.421875 C 22.597656 -0.0664062 20.078125 0.609375 17.015625 0.609375 Z M 17.015625 -1.640625 C 19.222656 -1.640625 21.148438 -2.144531 22.796875 -3.15625 C 24.441406 -4.175781 25.722656 -5.722656 26.640625 -7.796875 C 27.554688 -9.867188 28.015625 -12.492188 28.015625 -15.671875 C 28.015625 -18.492188 27.617188 -20.96875 26.828125 -23.09375 C 26.035156 -25.21875 24.828125 -26.867188 23.203125 -28.046875 C 21.578125 -29.222656 19.515625 -29.8125 17.015625 -29.8125 C 14.773438 -29.8125 12.816406 -29.300781 11.140625 -28.28125 C 9.460938 -27.269531 8.160156 -25.71875 7.234375 -23.625 C 6.316406 -21.53125 5.859375 -18.878906 5.859375 -15.671875 C 5.859375 -12.867188 6.257812 -10.414062 7.0625 -8.3125 C 7.863281 -6.207031 9.09375 -4.566406 10.75 -3.390625 C 12.40625 -2.222656 14.492188 -1.640625 17.015625 -1.640625 Z M 17.015625 -1.640625 "/></g></g></g><g fill="#dbdbdb" fill-opacity="1"><g transform="translate(63.942325, 292.975843)"><g><path d="M 5.484375 0 L 5.484375 -31.515625 L 7.6875 -31.515625 L 7.6875 -26.828125 C 8.226562 -28.242188 8.992188 -29.332031 9.984375 -30.09375 C 10.972656 -30.863281 12.035156 -31.394531 13.171875 -31.6875 C 14.304688 -31.976562 15.375 -32.125 16.375 -32.125 C 17 -32.125 17.625 -32.078125 18.25 -31.984375 C 18.882812 -31.898438 19.394531 -31.742188 19.78125 -31.515625 L 19.78125 -29.078125 C 19.351562 -29.285156 18.789062 -29.425781 18.09375 -29.5 C 17.394531 -29.582031 16.820312 -29.625 16.375 -29.625 C 15.625 -29.625 14.765625 -29.515625 13.796875 -29.296875 C 12.828125 -29.085938 11.890625 -28.703125 10.984375 -28.140625 C 10.085938 -27.585938 9.34375 -26.804688 8.75 -25.796875 C 8.15625 -24.796875 7.859375 -23.515625 7.859375 -21.953125 L 7.859375 0 Z M 5.484375 0 "/></g></g></g><g fill="#dbdbdb" fill-opacity="1"><g transform="translate(83.965608, 292.975843)"><g/></g></g><g fill="#dbdbdb" fill-opacity="1"><g transform="translate(96.704365, 292.975843)"><g><path d="M 19.171875 -29.453125 L 11.953125 -29.453125 L 11.953125 -7.078125 C 11.953125 -5.609375 12.078125 -4.539062 12.328125 -3.875 C 12.585938 -3.21875 13.066406 -2.800781 13.765625 -2.625 C 14.460938 -2.457031 15.472656 -2.375 16.796875 -2.375 L 19.484375 -2.375 L 19.484375 -0.3125 C 19.097656 -0.1875 18.550781 -0.101562 17.84375 -0.0625 C 17.144531 -0.0195312 16.410156 0 15.640625 0 C 14.054688 0 12.820312 -0.238281 11.9375 -0.71875 C 11.050781 -1.195312 10.429688 -1.953125 10.078125 -2.984375 C 9.722656 -4.023438 9.546875 -5.390625 9.546875 -7.078125 L 9.546875 -29.453125 L 4.421875 -29.453125 L 4.421875 -31.515625 L 9.546875 -31.515625 L 10.03125 -40.359375 L 11.953125 -40.359375 L 11.953125 -31.515625 L 19.171875 -31.515625 Z M 19.171875 -29.453125 "/></g></g></g><g fill="#dbdbdb" fill-opacity="1"><g transform="translate(117.550597, 292.975843)"><g><path d="M 5.484375 0 L 5.484375 -45.296875 L 7.6875 -45.296875 L 7.6875 -26.828125 C 8.226562 -27.816406 9.003906 -28.710938 10.015625 -29.515625 C 11.035156 -30.328125 12.25 -30.960938 13.65625 -31.421875 C 15.0625 -31.890625 16.617188 -32.125 18.328125 -32.125 C 20.421875 -32.125 22.296875 -31.753906 23.953125 -31.015625 C 25.609375 -30.273438 26.914062 -29.242188 27.875 -27.921875 C 28.84375 -26.597656 29.328125 -25.070312 29.328125 -23.34375 L 29.328125 0 L 26.953125 0 L 26.953125 -22.4375 C 26.953125 -24.75 26.171875 -26.554688 24.609375 -27.859375 C 23.054688 -29.160156 20.941406 -29.8125 18.265625 -29.8125 C 16.410156 -29.8125 14.691406 -29.523438 13.109375 -28.953125 C 11.523438 -28.390625 10.253906 -27.523438 9.296875 -26.359375 C 8.335938 -25.203125 7.859375 -23.734375 7.859375 -21.953125 L 7.859375 0 Z M 5.484375 0 "/></g></g></g><g fill="#dbdbdb" fill-opacity="1"><g transform="translate(149.308403, 292.975843)"><g><path d="M 6.28125 -15.1875 C 6.28125 -12.800781 6.675781 -10.585938 7.46875 -8.546875 C 8.257812 -6.503906 9.5 -4.851562 11.1875 -3.59375 C 12.875 -2.332031 15.050781 -1.703125 17.71875 -1.703125 C 20.21875 -1.703125 22.347656 -2.300781 24.109375 -3.5 C 25.878906 -4.695312 26.945312 -6.332031 27.3125 -8.40625 L 29.90625 -8.40625 C 29.5 -6.375 28.6875 -4.6875 27.46875 -3.34375 C 26.25 -2.007812 24.789062 -1.015625 23.09375 -0.359375 C 21.394531 0.285156 19.601562 0.609375 17.71875 0.609375 C 14.945312 0.609375 12.507812 -0.015625 10.40625 -1.265625 C 8.300781 -2.515625 6.65625 -4.335938 5.46875 -6.734375 C 4.28125 -9.128906 3.6875 -12.046875 3.6875 -15.484375 C 3.6875 -18.960938 4.21875 -21.945312 5.28125 -24.4375 C 6.351562 -26.925781 7.910156 -28.828125 9.953125 -30.140625 C 11.992188 -31.460938 14.457031 -32.125 17.34375 -32.125 C 20.070312 -32.125 22.394531 -31.523438 24.3125 -30.328125 C 26.226562 -29.128906 27.695312 -27.394531 28.71875 -25.125 C 29.75 -22.863281 30.265625 -20.117188 30.265625 -16.890625 L 30.265625 -15.1875 Z M 6.34375 -17.5 L 27.734375 -17.5 C 27.734375 -19.832031 27.359375 -21.925781 26.609375 -23.78125 C 25.859375 -25.644531 24.707031 -27.113281 23.15625 -28.1875 C 21.613281 -29.269531 19.65625 -29.8125 17.28125 -29.8125 C 14.695312 -29.8125 12.597656 -29.195312 10.984375 -27.96875 C 9.367188 -26.738281 8.1875 -25.175781 7.4375 -23.28125 C 6.6875 -21.394531 6.320312 -19.46875 6.34375 -17.5 Z M 6.34375 -17.5 "/></g></g></g><g fill="#dbdbdb" fill-opacity="1"><g transform="translate(180.822389, 292.975843)"><g/></g></g><g fill="#dbdbdb" fill-opacity="1"><g transform="translate(193.561136, 292.975843)"><g><path d="M 6.703125 0 L 6.703125 -44.078125 L 20.296875 -44.078125 C 23.390625 -44.078125 26.128906 -43.570312 28.515625 -42.5625 C 30.898438 -41.5625 32.769531 -40.066406 34.125 -38.078125 C 35.476562 -36.085938 36.15625 -33.617188 36.15625 -30.671875 C 36.15625 -27.722656 35.488281 -25.222656 34.15625 -23.171875 C 32.820312 -21.117188 30.992188 -19.554688 28.671875 -18.484375 C 26.347656 -17.421875 23.679688 -16.890625 20.671875 -16.890625 L 9.328125 -16.890625 L 9.328125 0 Z M 9.328125 -19.515625 L 20.671875 -19.515625 C 24.492188 -19.515625 27.582031 -20.488281 29.9375 -22.4375 C 32.289062 -24.382812 33.46875 -27.1875 33.46875 -30.84375 C 33.46875 -34.507812 32.269531 -37.203125 29.875 -38.921875 C 27.476562 -40.648438 24.265625 -41.515625 20.234375 -41.515625 L 9.328125 -41.515625 Z M 9.328125 -19.515625 "/></g></g></g><g fill="#dbdbdb" fill-opacity="1"><g transform="translate(228.945976, 292.975843)"><g><path d="M 6.28125 -15.1875 C 6.28125 -12.800781 6.675781 -10.585938 7.46875 -8.546875 C 8.257812 -6.503906 9.5 -4.851562 11.1875 -3.59375 C 12.875 -2.332031 15.050781 -1.703125 17.71875 -1.703125 C 20.21875 -1.703125 22.347656 -2.300781 24.109375 -3.5 C 25.878906 -4.695312 26.945312 -6.332031 27.3125 -8.40625 L 29.90625 -8.40625 C 29.5 -6.375 28.6875 -4.6875 27.46875 -3.34375 C 26.25 -2.007812 24.789062 -1.015625 23.09375 -0.359375 C 21.394531 0.285156 19.601562 0.609375 17.71875 0.609375 C 14.945312 0.609375 12.507812 -0.015625 10.40625 -1.265625 C 8.300781 -2.515625 6.65625 -4.335938 5.46875 -6.734375 C 4.28125 -9.128906 3.6875 -12.046875 3.6875 -15.484375 C 3.6875 -18.960938 4.21875 -21.945312 5.28125 -24.4375 C 6.351562 -26.925781 7.910156 -28.828125 9.953125 -30.140625 C 11.992188 -31.460938 14.457031 -32.125 17.34375 -32.125 C 20.070312 -32.125 22.394531 -31.523438 24.3125 -30.328125 C 26.226562 -29.128906 27.695312 -27.394531 28.71875 -25.125 C 29.75 -22.863281 30.265625 -20.117188 30.265625 -16.890625 L 30.265625 -15.1875 Z M 6.34375 -17.5 L 27.734375 -17.5 C 27.734375 -19.832031 27.359375 -21.925781 26.609375 -23.78125 C 25.859375 -25.644531 24.707031 -27.113281 23.15625 -28.1875 C 21.613281 -29.269531 19.65625 -29.8125 17.28125 -29.8125 C 14.695312 -29.8125 12.597656 -29.195312 10.984375 -27.96875 C 9.367188 -26.738281 8.1875 -25.175781 7.4375 -23.28125 C 6.6875 -21.394531 6.320312 -19.46875 6.34375 -17.5 Z M 6.34375 -17.5 "/></g></g></g><g fill="#dbdbdb" fill-opacity="1"><g transform="translate(260.459953, 292.975843)"><g><path d="M 17.015625 0.609375 C 14.285156 0.609375 11.894531 0.0195312 9.84375 -1.15625 C 7.789062 -2.332031 6.195312 -4.125 5.0625 -6.53125 C 3.925781 -8.945312 3.359375 -11.992188 3.359375 -15.671875 C 3.359375 -18.960938 3.847656 -21.84375 4.828125 -24.3125 C 5.816406 -26.78125 7.320312 -28.695312 9.34375 -30.0625 C 11.363281 -31.4375 13.921875 -32.125 17.015625 -32.125 C 19.710938 -32.125 22.066406 -31.53125 24.078125 -30.34375 C 26.085938 -29.15625 27.65625 -27.347656 28.78125 -24.921875 C 29.914062 -22.492188 30.484375 -19.410156 30.484375 -15.671875 C 30.484375 -12.421875 29.992188 -9.570312 29.015625 -7.125 C 28.046875 -4.6875 26.566406 -2.785156 24.578125 -1.421875 C 22.597656 -0.0664062 20.078125 0.609375 17.015625 0.609375 Z M 17.015625 -1.640625 C 19.222656 -1.640625 21.148438 -2.144531 22.796875 -3.15625 C 24.441406 -4.175781 25.722656 -5.722656 26.640625 -7.796875 C 27.554688 -9.867188 28.015625 -12.492188 28.015625 -15.671875 C 28.015625 -18.492188 27.617188 -20.96875 26.828125 -23.09375 C 26.035156 -25.21875 24.828125 -26.867188 23.203125 -28.046875 C 21.578125 -29.222656 19.515625 -29.8125 17.015625 -29.8125 C 14.773438 -29.8125 12.816406 -29.300781 11.140625 -28.28125 C 9.460938 -27.269531 8.160156 -25.71875 7.234375 -23.625 C 6.316406 -21.53125 5.859375 -18.878906 5.859375 -15.671875 C 5.859375 -12.867188 6.257812 -10.414062 7.0625 -8.3125 C 7.863281 -6.207031 9.09375 -4.566406 10.75 -3.390625 C 12.40625 -2.222656 14.492188 -1.640625 17.015625 -1.640625 Z M 17.015625 -1.640625 "/></g></g></g><g fill="#dbdbdb" fill-opacity="1"><g transform="translate(291.852001, 292.975843)"><g><path d="M 5.484375 9.8125 L 5.484375 -31.515625 L 7.796875 -31.515625 L 7.921875 -25.0625 C 8.148438 -25.625 8.503906 -26.300781 8.984375 -27.09375 C 9.472656 -27.894531 10.144531 -28.679688 11 -29.453125 C 11.851562 -30.222656 12.921875 -30.859375 14.203125 -31.359375 C 15.484375 -31.867188 17.03125 -32.125 18.84375 -32.125 C 21.519531 -32.125 23.863281 -31.554688 25.875 -30.421875 C 27.894531 -29.285156 29.460938 -27.546875 30.578125 -25.203125 C 31.691406 -22.867188 32.25 -19.914062 32.25 -16.34375 C 32.25 -12.945312 31.765625 -9.976562 30.796875 -7.4375 C 29.835938 -4.894531 28.363281 -2.914062 26.375 -1.5 C 24.394531 -0.09375 21.882812 0.609375 18.84375 0.609375 C 17.03125 0.609375 15.484375 0.351562 14.203125 -0.15625 C 12.921875 -0.675781 11.859375 -1.332031 11.015625 -2.125 C 10.171875 -2.925781 9.503906 -3.734375 9.015625 -4.546875 C 8.535156 -5.359375 8.171875 -6.066406 7.921875 -6.671875 L 7.921875 9.8125 Z M 18.84375 -1.640625 C 22.113281 -1.640625 24.738281 -2.820312 26.71875 -5.1875 C 28.695312 -7.5625 29.6875 -11.195312 29.6875 -16.09375 C 29.6875 -20.21875 28.800781 -23.535156 27.03125 -26.046875 C 25.269531 -28.554688 22.539062 -29.8125 18.84375 -29.8125 C 15.28125 -29.8125 12.550781 -28.570312 10.65625 -26.09375 C 8.769531 -23.613281 7.828125 -20.28125 7.828125 -16.09375 C 7.828125 -13.3125 8.25 -10.832031 9.09375 -8.65625 C 9.9375 -6.476562 11.175781 -4.765625 12.8125 -3.515625 C 14.445312 -2.265625 16.457031 -1.640625 18.84375 -1.640625 Z M 18.84375 -1.640625 "/></g></g></g><g fill="#dbdbdb" fill-opacity="1"><g transform="translate(325.011866, 292.975843)"><g><path d="M 11.34375 0.25 C 10.28125 0.25 9.378906 0.0546875 8.640625 -0.328125 C 7.898438 -0.722656 7.296875 -1.265625 6.828125 -1.953125 C 6.359375 -2.640625 6.015625 -3.445312 5.796875 -4.375 C 5.585938 -5.300781 5.484375 -6.300781 5.484375 -7.375 L 5.484375 -45.296875 L 7.859375 -45.296875 L 7.859375 -7.375 C 7.859375 -5.34375 8.226562 -3.898438 8.96875 -3.046875 C 9.71875 -2.191406 10.53125 -1.765625 11.40625 -1.765625 L 13.328125 -1.765625 L 13.328125 0 C 12.972656 0.0820312 12.609375 0.144531 12.234375 0.1875 C 11.859375 0.226562 11.5625 0.25 11.34375 0.25 Z M 11.34375 0.25 "/></g></g></g><g fill="#dbdbdb" fill-opacity="1"><g transform="translate(339.061235, 292.975843)"><g><path d="M 6.28125 -15.1875 C 6.28125 -12.800781 6.675781 -10.585938 7.46875 -8.546875 C 8.257812 -6.503906 9.5 -4.851562 11.1875 -3.59375 C 12.875 -2.332031 15.050781 -1.703125 17.71875 -1.703125 C 20.21875 -1.703125 22.347656 -2.300781 24.109375 -3.5 C 25.878906 -4.695312 26.945312 -6.332031 27.3125 -8.40625 L 29.90625 -8.40625 C 29.5 -6.375 28.6875 -4.6875 27.46875 -3.34375 C 26.25 -2.007812 24.789062 -1.015625 23.09375 -0.359375 C 21.394531 0.285156 19.601562 0.609375 17.71875 0.609375 C 14.945312 0.609375 12.507812 -0.015625 10.40625 -1.265625 C 8.300781 -2.515625 6.65625 -4.335938 5.46875 -6.734375 C 4.28125 -9.128906 3.6875 -12.046875 3.6875 -15.484375 C 3.6875 -18.960938 4.21875 -21.945312 5.28125 -24.4375 C 6.351562 -26.925781 7.910156 -28.828125 9.953125 -30.140625 C 11.992188 -31.460938 14.457031 -32.125 17.34375 -32.125 C 20.070312 -32.125 22.394531 -31.523438 24.3125 -30.328125 C 26.226562 -29.128906 27.695312 -27.394531 28.71875 -25.125 C 29.75 -22.863281 30.265625 -20.117188 30.265625 -16.890625 L 30.265625 -15.1875 Z M 6.34375 -17.5 L 27.734375 -17.5 C 27.734375 -19.832031 27.359375 -21.925781 26.609375 -23.78125 C 25.859375 -25.644531 24.707031 -27.113281 23.15625 -28.1875 C 21.613281 -29.269531 19.65625 -29.8125 17.28125 -29.8125 C 14.695312 -29.8125 12.597656 -29.195312 10.984375 -27.96875 C 9.367188 -26.738281 8.1875 -25.175781 7.4375 -23.28125 C 6.6875 -21.394531 6.320312 -19.46875 6.34375 -17.5 Z M 6.34375 -17.5 "/></g></g></g></svg>