<svg xmlns="http://www.w3.org/2000/svg" xmlns:xlink="http://www.w3.org/1999/xlink" width="500" zoomAndPan="magnify" viewBox="0 0 375 374.999991" height="500" preserveAspectRatio="xMidYMid meet" version="1.0"><defs><clipPath id="61318a7125"><path d="M 0 45 L 375 45 L 375 349.5 L 0 349.5 Z M 0 45 " clip-rule="nonzero"/></clipPath></defs><g clip-path="url(#61318a7125)"><path fill="#ffffff" d="M 336.269531 121.34375 C 336.496094 124.640625 336.496094 127.9375 336.496094 131.257812 C 336.496094 232.601562 259.277344 349.476562 118.085938 349.476562 L 118.085938 349.417969 C 76.375 349.484375 35.535156 337.550781 0.421875 315.039062 C 6.484375 315.765625 12.582031 316.132812 18.695312 316.148438 C 53.261719 316.175781 86.835938 304.585938 114.03125 283.25 C 81.179688 282.628906 52.378906 261.230469 42.3125 229.984375 C 53.820312 232.207031 65.675781 231.75 76.96875 228.664062 C 41.152344 221.433594 15.390625 189.992188 15.390625 153.484375 C 15.390625 153.148438 15.390625 152.835938 15.390625 152.511719 C 26.058594 158.449219 38.011719 161.746094 50.230469 162.113281 C 16.503906 139.601562 6.109375 94.769531 26.480469 59.714844 C 65.449219 107.628906 122.949219 136.761719 184.679688 139.839844 C 178.492188 113.199219 186.945312 85.289062 206.890625 66.5625 C 237.808594 37.523438 286.433594 39.011719 315.5 69.890625 C 332.6875 66.5 349.164062 60.199219 364.242188 51.273438 C 358.511719 69.027344 346.523438 84.109375 330.5 93.6875 C 345.714844 91.890625 360.582031 87.824219 374.585938 81.613281 C 364.273438 97.042969 351.289062 110.488281 336.269531 121.34375 Z M 336.269531 121.34375 " fill-opacity="1" fill-rule="nonzero"/></g></svg>